<?xml version="1.0" encoding="iso-8859-1"?>
<!-- Generator: Adobe Illustrator 16.0.0, SVG Export Plug-In . SVG Version: 6.00 Build 0)  -->
<!DOCTYPE svg PUBLIC "-//W3C//DTD SVG 1.1//EN" "http://www.w3.org/Graphics/SVG/1.1/DTD/svg11.dtd">
<svg version="1.1" id="Capa_1" xmlns="http://www.w3.org/2000/svg" xmlns:xlink="http://www.w3.org/1999/xlink" x="0px" y="0px"
	 width="45.861px" height="45.861px" viewBox="0 0 45.861 45.861" style="enable-background:new 0 0 45.861 45.861;"
	 xml:space="preserve">
<g>
	<g>
		<path d="M25.918,19.285c-4.77-1.796-6.733-2.975-6.733-4.826c0-1.57,1.179-3.143,4.826-3.143c2.37,0,4.237,0.444,5.67,0.938
			c0.63,0.217,1.319,0.16,1.903-0.155c0.586-0.315,1.011-0.861,1.176-1.507l0.427-1.69c0.313-1.217-0.377-2.467-1.573-2.856
			c-1.576-0.513-3.467-0.9-6.061-1.012V1.356C25.553,0.66,25.018,0,24.32,0h-2.975c-0.696,0-1.333,0.66-1.333,1.356v4.069
			c-5.895,1.179-9.448,5.05-9.448,9.988c0,5.443,4.122,8.249,10.125,10.269c4.153,1.404,5.954,2.752,5.954,4.883
			c0,2.244-2.187,3.48-5.384,3.48c-2.513,0-4.864-0.561-6.854-1.33c-0.635-0.244-1.345-0.209-1.951,0.104
			c-0.605,0.312-1.049,0.867-1.218,1.527l-0.484,1.887c-0.301,1.174,0.315,2.386,1.448,2.816c2.09,0.797,4.864,1.381,7.576,1.504
			v4.07c0,0.696,0.591,1.238,1.289,1.238h2.974c0.697,0,1.278-0.542,1.278-1.238V40.16c6.484-1.122,9.979-5.389,9.979-10.382
			C35.299,24.729,32.597,21.643,25.918,19.285z"/>
	</g>
</g>
<g>
</g>
<g>
</g>
<g>
</g>
<g>
</g>
<g>
</g>
<g>
</g>
<g>
</g>
<g>
</g>
<g>
</g>
<g>
</g>
<g>
</g>
<g>
</g>
<g>
</g>
<g>
</g>
<g>
</g>
</svg>
