<?xml version="1.0" encoding="iso-8859-1"?>
<!-- Generator: Adobe Illustrator 18.0.0, SVG Export Plug-In . SVG Version: 6.00 Build 0)  -->
<!DOCTYPE svg PUBLIC "-//W3C//DTD SVG 1.1//EN" "http://www.w3.org/Graphics/SVG/1.1/DTD/svg11.dtd">
<svg version="1.1" id="Capa_1" xmlns="http://www.w3.org/2000/svg" xmlns:xlink="http://www.w3.org/1999/xlink" x="0px" y="0px"
	 viewBox="0 0 497.609 497.609" style="enable-background:new 0 0 497.609 497.609;" xml:space="preserve">
<g id="XMLID_127_">
	<path id="XMLID_134_" d="M242.368,92.266c25.478,0,46.141-20.656,46.141-46.133C288.509,20.656,267.846,0,242.368,0
		c-25.477,0-46.14,20.656-46.14,46.133C196.229,71.609,216.892,92.266,242.368,92.266z"/>
	<path id="XMLID_133_" d="M175.377,71.009c10.416,0,18.857-8.443,18.857-18.859c0-10.406-8.441-18.849-18.857-18.849
		c-8.857,0-22.714,14.27-42.25,5.095c-1.928-0.911-4.23-0.479-5.689,1.072c-1.467,1.552-1.776,3.864-0.759,5.743
		C133.192,57.227,147.877,71.009,175.377,71.009z"/>
	<path id="XMLID_128_" d="M409.034,420.914l-37.059-224.605c4.015-4.663,6.017-10.943,4.315-17.336
		c-2.726-10.266-13.265-16.387-23.568-13.642l-43.266,11.535l-35.178-36.591l-0.065-0.63c-1.685-16.317-15.438-28.729-31.844-28.729
		c-16.405,0-30.16,12.412-31.842,28.729l-8.44,81.793l-23.758,66.616c-0.773,2.154-0.443,4.543,0.874,6.404
		c1.315,1.87,3.46,2.978,5.743,2.978c17.157,0-1.738,0,15.418,0v26.889l-43.35,42.476c-7.596,7.444-7.717,19.629-0.281,27.224
		c7.399,7.56,19.609,7.748,27.226,0.283l49.13-48.134c3.694-3.62,5.782-8.583,5.782-13.755v-34.982h5.697V405.74
		c0,4.842,1.946,9.129,4.898,12.514c0,0-142.909-0.641-145.071-0.641c-22.055,0-39.992,17.939-39.992,39.995
		c0,22.056,17.937,40.001,39.992,40.001c22.055,0,40.004-17.945,40.004-40.001c0-0.028-0.011-0.046-0.011-0.075l184.924-0.772
		c6.111,0,11.854-2.904,15.484-7.811l32.367-43.831l2.482,15.025c-15.37,5.573-26.436,20.183-26.436,37.464
		c0,22.056,17.937,40.001,39.993,40.001c22.054,0,40.003-17.945,40.003-40.001C433.206,441.175,423.231,427.054,409.034,420.914z
		 M104.396,468.728c-6.128,0-11.111-4.99-11.111-11.12s4.983-11.114,11.111-11.114c6.13,0,11.123,4.984,11.123,11.114
		S110.526,468.728,104.396,468.728z M319.601,418.254h-41.422c2.951-3.385,4.897-7.672,4.897-12.514V297.438
		c14.196,0-2.904,0,16.716,0c2.284,0,4.426-1.108,5.744-2.978c1.317-1.861,1.647-4.25,0.874-6.404l-23.757-66.616l-1.954-18.934
		l8.874,9.232c4.72,4.907,11.829,7.106,18.84,5.263l36.121-9.626l23.888,144.771L319.601,418.254z M393.203,468.728
		c-6.128,0-11.112-4.99-11.112-11.12s4.984-11.114,11.112-11.114c6.13,0,11.122,4.984,11.122,11.114
		S399.333,468.728,393.203,468.728z"/>
</g>
<g>
</g>
<g>
</g>
<g>
</g>
<g>
</g>
<g>
</g>
<g>
</g>
<g>
</g>
<g>
</g>
<g>
</g>
<g>
</g>
<g>
</g>
<g>
</g>
<g>
</g>
<g>
</g>
<g>
</g>
</svg>
