<?xml version="1.0" encoding="UTF-8" standalone="no"?>
<svg width="600px" height="600px" viewBox="0 0 600 600" version="1.1" xmlns="http://www.w3.org/2000/svg" xmlns:xlink="http://www.w3.org/1999/xlink" xmlns:sketch="http://www.bohemiancoding.com/sketch/ns">
    <!-- Generator: Sketch 3.3.3 (12081) - http://www.bohemiancoding.com/sketch -->
    <title>Slice 1</title>
    <desc>Created with Sketch.</desc>
    <defs></defs>
    <g id="Page-1" stroke="none" stroke-width="1" fill="none" fill-rule="evenodd" sketch:type="MSPage">
        <g id="Group" sketch:type="MSLayerGroup" fill="#FFFFFF">
            <path d="M16.711,0.24 L215.209,0.24 C219.603,0.24 223.593,2.032 226.481,4.919 C229.368,7.807 231.16,11.797 231.16,16.191 L231.16,138.48 L215.8,138.48 L215.8,16.191 C215.8,16.036 215.731,15.889 215.621,15.779 C215.51,15.669 215.364,15.6 215.209,15.6 L16.711,15.6 C16.556,15.6 16.41,15.669 16.299,15.779 C16.189,15.889 16.12,16.036 16.12,16.191 L16.12,299.169 C16.12,299.324 16.189,299.47 16.299,299.581 C16.41,299.691 16.556,299.76 16.711,299.76 L162.04,299.76 L162.04,315.12 L16.711,315.12 C12.317,315.12 8.327,313.328 5.439,310.441 C2.552,307.553 0.76,303.563 0.76,299.169 L0.76,16.191 C0.76,11.797 2.552,7.807 5.439,4.919 C8.327,2.032 12.317,0.24 16.711,0.24" id="Fill-2" sketch:type="MSShapeGroup"></path>
            <path d="M39.16,46.32 L192.76,46.32 L192.76,61.68 L39.16,61.68 L39.16,46.32 Z" id="Fill-3" sketch:type="MSShapeGroup"></path>
            <path d="M39.16,115.44 L192.76,115.44 L192.76,130.8 L39.16,130.8 L39.16,115.44 Z" id="Fill-4" sketch:type="MSShapeGroup"></path>
            <path d="M39.16,184.559 L162.04,184.559 L162.04,199.919 L39.16,199.919 L39.16,184.559 Z" id="Fill-5" sketch:type="MSShapeGroup"></path>
            <path d="M39.16,253.679 L162.04,253.679 L162.04,269.039 L39.16,269.039 L39.16,253.679 Z" id="Fill-6" sketch:type="MSShapeGroup"></path>
            <path d="M195.019,146.16 L359.461,146.16 C366.427,146.16 372.753,149.004 377.335,153.586 C381.916,158.167 384.76,164.494 384.76,171.459 L384.76,358.941 C384.76,365.907 381.916,372.233 377.335,376.815 C372.753,381.396 366.427,384.24 359.461,384.24 L195.019,384.24 C188.054,384.24 181.727,381.396 177.146,376.815 C172.564,372.233 169.72,365.907 169.72,358.941 L169.72,171.459 C169.72,164.494 172.564,158.167 177.146,153.586 C181.727,149.004 188.054,146.16 195.019,146.16 L195.019,146.16 Z M359.461,161.52 L195.019,161.52 C192.294,161.52 189.811,162.641 188.006,164.446 C186.201,166.25 185.08,168.734 185.08,171.459 L185.08,358.941 C185.08,361.666 186.201,364.15 188.006,365.955 C189.811,367.759 192.294,368.88 195.019,368.88 L359.461,368.88 C362.186,368.88 364.67,367.759 366.475,365.955 C368.279,364.15 369.4,361.666 369.4,358.941 L369.4,171.459 C369.4,168.734 368.279,166.25 366.475,164.446 C364.67,162.641 362.186,161.52 359.461,161.52 L359.461,161.52 Z" id="Fill-7" sketch:type="MSShapeGroup"></path>
            <path d="M200.44,169.2 L361.721,169.2 L361.721,230.64 L192.76,230.64 L192.76,169.2 L200.44,169.2 L200.44,169.2 Z M208.12,215.28 L346.36,215.28 L346.36,184.56 L208.12,184.56 L208.12,215.28 Z" id="Fill-8" sketch:type="MSShapeGroup"></path>
            <path d="M192.76,246 L212.953,246 L212.953,264.519 L192.76,264.519 L192.76,246 Z" id="Fill-9" sketch:type="MSShapeGroup"></path>
            <path d="M229.952,246 L250.145,246 L250.145,264.519 L229.952,264.519 L229.952,246 Z" id="Fill-10" sketch:type="MSShapeGroup"></path>
            <path d="M267.143,246 L287.336,246 L287.336,264.519 L267.143,264.519 L267.143,246 Z" id="Fill-11" sketch:type="MSShapeGroup"></path>
            <path d="M304.335,246 L324.528,246 L324.528,264.519 L304.335,264.519 L304.335,246 Z" id="Fill-12" sketch:type="MSShapeGroup"></path>
            <path d="M341.527,246 L361.72,246 L361.72,264.519 L341.527,264.519 L341.527,246 Z" id="Fill-13" sketch:type="MSShapeGroup"></path>
            <path d="M192.76,276.72 L212.953,276.72 L212.953,295.239 L192.76,295.239 L192.76,276.72 Z" id="Fill-14" sketch:type="MSShapeGroup"></path>
            <path d="M229.952,276.72 L250.145,276.72 L250.145,295.239 L229.952,295.239 L229.952,276.72 Z" id="Fill-15" sketch:type="MSShapeGroup"></path>
            <path d="M267.143,276.72 L287.336,276.72 L287.336,295.239 L267.143,295.239 L267.143,276.72 Z" id="Fill-16" sketch:type="MSShapeGroup"></path>
            <path d="M304.335,276.72 L324.528,276.72 L324.528,295.239 L304.335,295.239 L304.335,276.72 Z" id="Fill-17" sketch:type="MSShapeGroup"></path>
            <path d="M341.527,276.72 L361.72,276.72 L361.72,295.239 L341.527,295.239 L341.527,276.72 Z" id="Fill-18" sketch:type="MSShapeGroup"></path>
            <path d="M192.76,307.44 L212.953,307.44 L212.953,325.959 L192.76,325.959 L192.76,307.44 Z" id="Fill-19" sketch:type="MSShapeGroup"></path>
            <path d="M229.952,307.44 L250.145,307.44 L250.145,325.959 L229.952,325.959 L229.952,307.44 Z" id="Fill-20" sketch:type="MSShapeGroup"></path>
            <path d="M267.143,307.44 L287.336,307.44 L287.336,325.959 L267.143,325.959 L267.143,307.44 Z" id="Fill-21" sketch:type="MSShapeGroup"></path>
            <path d="M304.335,307.44 L324.528,307.44 L324.528,325.959 L304.335,325.959 L304.335,307.44 Z" id="Fill-22" sketch:type="MSShapeGroup"></path>
            <path d="M192.76,338.16 L212.953,338.16 L212.953,356.679 L192.76,356.679 L192.76,338.16 Z" id="Fill-23" sketch:type="MSShapeGroup"></path>
            <path d="M229.952,338.16 L250.145,338.16 L250.145,356.679 L229.952,356.679 L229.952,338.16 Z" id="Fill-24" sketch:type="MSShapeGroup"></path>
            <path d="M267.143,338.16 L287.336,338.16 L287.336,356.679 L267.143,356.679 L267.143,338.16 Z" id="Fill-25" sketch:type="MSShapeGroup"></path>
            <path d="M304.335,338.16 L324.528,338.16 L324.528,356.679 L304.335,356.679 L304.335,338.16 Z" id="Fill-26" sketch:type="MSShapeGroup"></path>
            <path d="M343.943,307.44 L359.303,307.44 L359.303,358.836 L343.943,358.836 L343.943,307.44 Z" id="Fill-27" sketch:type="MSShapeGroup"></path>
        </g>
    </g>
</svg>