<?xml version="1.0" encoding="UTF-8" standalone="no"?>
<!-- Created with Inkscape (http://www.inkscape.org/) -->

<svg
   xmlns:dc="http://purl.org/dc/elements/1.1/"
   xmlns:cc="http://creativecommons.org/ns#"
   xmlns:rdf="http://www.w3.org/1999/02/22-rdf-syntax-ns#"
   xmlns:svg="http://www.w3.org/2000/svg"
   xmlns="http://www.w3.org/2000/svg"
   xmlns:sodipodi="http://sodipodi.sourceforge.net/DTD/sodipodi-0.dtd"
   xmlns:inkscape="http://www.inkscape.org/namespaces/inkscape"
   version="1.1"
   width="1711.175"
   height="1752.25"
   id="svg2"
   xml:space="preserve"
   inkscape:version="0.48.4 r9939"
   sodipodi:docname="city-skyline-10.svg"><sodipodi:namedview
     pagecolor="#ffffff"
     bordercolor="#666666"
     borderopacity="1"
     objecttolerance="10"
     gridtolerance="10"
     guidetolerance="10"
     inkscape:pageopacity="0"
     inkscape:pageshadow="2"
     inkscape:window-width="640"
     inkscape:window-height="480"
     id="namedview11"
     showgrid="false"
     inkscape:zoom="0.13468398"
     inkscape:cx="855.58752"
     inkscape:cy="994.36475"
     inkscape:window-x="0"
     inkscape:window-y="0"
     inkscape:window-maximized="0"
     inkscape:current-layer="svg2" /><metadata
     id="metadata8"><rdf:RDF><cc:Work
         rdf:about=""><dc:format>image/svg+xml</dc:format><dc:type
           rdf:resource="http://purl.org/dc/dcmitype/StillImage" /><dc:title /></cc:Work></rdf:RDF></metadata><defs
     id="defs6" /><g
     transform="matrix(1.2429884,0,0,-1.25,-0.72322784,2653.2646)"
     id="g10"><path
       d="m 1.375,888.802 5.81055,0 0,-3.871 10.32265,0 0,-2.689 -2.1504,0 0,-16.129 4.3008,0 0,-9.678 13.2266,0 0,-5.591 14.5168,0 7.5273,-4.194 2.5809,0 0,-3.442 2.6886,0 0,-7.097 23.4414,0 0,-3.655 2.7957,0 0,6.881 14.7321,0 0,30.432 2.85,2.849 2.526,0 0,24.141 -1.612,0 0,9.786 6.989,0 0,3.225 18.065,0 0,-3.656 35.486,0 0,-10.86 -1.398,0 0,-63.551 6.989,0 0,6.667 34.841,0 0,25.699 10.968,0 0,5.162 10.968,0 0,-5.377 10.646,0 0,-30.216 4.839,0 0,-4.731 2.151,0 0,1.72 1.72,0 0,2.473 1.398,0 0,2.903 22.904,0 0,3.549 14.409,0 0,44.089 11.937,0 0,4.3 22.043,0 0,-3.978 17.743,0 c 0,0 1.29,12.473 24.302,10.968 0.014,0 0.753,33.765 0.753,33.765 l 4.248,0 0,6.56 4.355,0 0,3.118 6.935,6.937 0,2.418 28.55,0 0,-2.365 7.742,-7.742 0,-2.904 2.474,0 0,-7.285 4.139,0 0,-70.407 12.259,0 0,1.452 7.581,0 0,-2.057 6.815,0 3.488,-3.487 9.94,0 0,113.613 3.71,0 0,9.92 3.79,3.791 0,8.629 18.711,0 0,8.549 3.145,0 0,-9.194 5.807,0 0,-2.5 7.298,-7.299 0,-11.976 4.315,0 0,-114.01 6.103,0 0,4.731 12.151,0 0,55.983 2.15,0 0,6.116 23.872,0 0,24.034 5.485,0 0,10.323 69.572,0 0,-88.93 6.667,0 0,-4.516 4.302,0 0,40.647 9.462,0 0,3.442 11.614,0 0,-3.657 7.742,0 0,-32.904 4.517,0 0,28.818 9.677,0 0,50.325 2.976,0 0,19.033 1.739,1.738 0,40.85 44.803,0 0,-40.168 1.291,-1.291 0,-21.291 2.743,0 0,-72.1 6.047,6.049 9.437,-9.436 3.548,0 0,35.646 58.39,0 0,-47.582 c 0,0 3.307,-0.242 5.243,-4.436 l 16.774,0 0,4.92 6.936,0 0,8.952 7.581,0 0,87.719 50.352,0 0,-64.949 5.807,0 0,-39.787 5.053,0 0,5 1.291,0 0,-12.581 5.645,0 0,76.616 21.452,0 0,13.388 4.033,0 0,3.065 12.581,0 0,5.913 65.867,0 0,-44.303 11.18,-5.161 0,-46.454 1.18,1.182 0,105.92 17.58,17.581 18.23,0 4.6,-4.596 0,66.804 3.3,0 0,3.6 44.2,0 0,-4.51 4.35,0 0,-52.587 5.33,0 0,-131.458 5.64,0 0,-2.258 1.94,0 0,-8.71 9.43,0 0,7.984 18.47,0 0,4.678 9.41,0 0,4.435 35.38,0 0,1.72 13.98,0 0,-7.312 4.73,0 0,5.592 16.13,0 0,8.818 8.01,8.011 0,5.216 1.24,0 0,-5.485 7.85,-7.849 0,-9.893 16.56,0 7.1,-7.098 4.19,0 0,7.85 8.39,0 0,-9.893 11.72,0 0,5.162 14.51,0 0,-15.807 12.26,0 0,-14.678 5.49,0 0,36.13 -1.94,0 11.78,23.42 0,3.517 1.77,0 0,-3.517 11.29,-22.613 -1.45,0 0,-40.002 2.46,0 0,-90.434 -1365.805,0 0,163.663"
       id="path16"
       style="fill:#211c1d;fill-opacity:1;fill-rule:nonzero;stroke:none"
       inkscape:connector-curvature="0" /><path
       d="m 1358.04,785.555 -2.27,0 0,-9.507 -5.37,0 0,53.735 -1.45,0 0,26.66 -21.91,0 -3.92,-13.02 -3.72,0 0,-3.1 -2.9,0 0,-2.48 -3.92,0 0,-2.687 -1.86,0 0,-20.254 -13.02,0 0,-41.954 -2.69,0 0,-3.72 -8.89,0 0,38.234 -4.13,0 0,6.2 1.03,-1.033 -4.23,4.237 -15.4,0 -3.98,-3.979 1.5,0 0,-2.118 -1.5,0 0,-2.48 -2.43,0 0,8.474 -1.86,0 0,1.859 -4.54,0 0,3.101 -4.55,0 0,2.273 -9.3,0 0,-2.273 -6.2,0 0,-10.334 -1.65,1.653 0,1.447 -1.66,0 0,2.067 -1.65,0 0,3.513 -6.41,0 0,3.513 -1.65,0 0,4.96 -22.74,0 0,5.314 -2.06,0 0,21.347 -3.52,0 0,1.24 -6.61,0 0,3.513 -9.3,0 0,-3.926 -8.06,0 0,-7.027 -2.07,0 0,-7.853 -3.51,0 0,-19.427 -4.55,0 0,-2.274 -5.99,0 0,-4.857 -8.89,0 0,-1.963 -2.06,0 0,-2.893 -5.79,0 0,-3.927 -1.65,0 0,-6.82 -6,0 0,8.06 -1.65,0 0,5.58 2.69,0 0,14.88 -7.03,0 0,10.747 -8.89,0 0,9.714 -11.78,0 0,3.719 -21.9,0 0,-3.306 -8.48,0 0,-32.034 -2.48,0 0,45.467 -11.16,0 10.96,13.434 c 0,0 -20.26,-4.546 -29.35,-4.133 -9.1,0.413 -13.64,1.239 -13.64,1.239 l -10.75,2.894 9.3,-11.78 -12.6,-1.034 0,-51.46 -14.059,0 0,118.421 -1.447,-27.693 -11.16,0 0,13.433 -3.306,0 -17.567,20.874 -4.135,0 -2.892,25.627 -1.034,-25.627 -6.614,0 -9.92,-20.46 0,-63.241 -48.153,0 0,25.834 -14.881,0 0,4.133 -18.806,0 0,-3.514 -7.648,0 0,-1.653 -6.199,0 0,-1.86 -43.608,0 0,2.894 -13.434,4.753 0,7.026 -1.085,-5.011 -1.24,0.155 -0.671,7.078 -0.311,-7.182 -2.117,0 -0.62,6.252 -0.931,-5.993 -0.929,-0.207 -0.982,6.407 -0.259,-8.68 -12.245,-5.735 0,-3.41 -4.96,0 0,-44.021 -13.743,0 0,-7.027 -5.994,0 0,4.547 -12.193,0 0,-2.274 -2.894,0 0,-3.306 -3.307,0 0,-22.734 -3.306,0 0,52.907 -7.648,0 0,16.741 -2.686,0 0,32.034 -1.446,-17.98 -1.241,0 0,1.756 -1.601,0 0,2.428 -1.654,0 0,2.713 -23.199,0 0,59.099 -10.195,0 0,3.996 -18.463,0 0,-3.169 -9.507,0 0,-95.344 -2.203,-0.413 0,-44.228 -4.582,0 0,4.96 -1.24,0 0,39.888 -42.471,0 0,-34.204 -2.686,0 0,1.447 -7.234,0 0,1.446 -3.617,0 0,-1.653 -3.065,0 0,-1.895 -1.62,0 0,37.407 -3.892,0 0,1.24 -5.235,0 0,3.032 -5.924,0 0,2.618 -1.102,0 -1.929,-1.93 -3.583,0 0,3.755 -6.751,0 0,-4.03 -13.503,0 0,-2.756 -1.585,-1.584 -3.375,0 0,-19.22 -5.025,-5.025 -13.576,0 0,-9.579 -2.755,0 0,39.818 -4.409,0 0,7.715 -32.379,0 0,26.316 -4.408,0 0,9.231 -7.027,0 0,6.063 -3.445,0 0,19.841 -3.444,3.443 0,9.232 -0.896,0.896 0,-9.989 -3.962,-3.962 0,-19.461 -2.72,0 0,-5.374 -7.716,0 0,-9.369 -3.857,0 0,-16.808 -1.516,0 0,6.337 -7.716,0 0,-3.583 -7.441,0 0,-3.306 -10.195,0 0,-62.415 -4.89,0 0,6.752 -1.24,-11.16 -5.03,0 0,-2.963 -4.408,0 0,2.48 -17.636,0 0,-1.377 -7.233,0 0,2.756 -1.723,0 0,6.13 -9.059,0 0,64.275 -6.716,0 0,2.687 -5.271,0 0,6.2 -2.17,0 0,1.653 -4.96,0 0,28.624 -5.167,0 0,-28.417 -2.687,0 0,-1.447 -4.546,0 0,-6.303 -4.857,0 0,-2.481 -10.333,0 0,-2.273 -6.717,0 0,1.24 -3.824,0 0,1.446 -9.609,0 0,-3.926 -5.891,0 0,-25.73 -11.056,0 0,9.403 -10.954,0 0,-8.784 -4.134,0 0,45.675 -11.366,0 0,6.406 -25.627,0 0,-5.786 -10.954,0 0,-38.854 -7.44,0 0,-4.134 -2.687,0 0,-56.42 -3.72,0 0,65.307 -40.921,0 0,107.468 -4.96,0 0,6.614 -40.507,0 0,-149.069 -2.1353,0 0,4.744 -30.9321,0 0,-3.03 -7.2332,0 0,-2.55 -5.6488,0 0,-5.097 -3.8578,0 0,-1.861 -5.2356,0 0,-42.987 -5.9254,0 0,-20.253 -8.473,0 0,7.027 -4.5469,0 0,14.466 -6.2004,0 0,15.5 -4.7527,0 0,17.981 -15.13477,0 0,-96.516 1366.59297,0 0,54.699 -8.59,0 0,9.645 -1.17,-0.069"
       id="path24"
       style="fill:#3b393d;fill-opacity:1;fill-rule:nonzero;stroke:none"
       inkscape:connector-curvature="0" /><path
       d="m 1355.77,785.555 0,-9.508 -5.37,-10e-4 -0.01,0 0,53.737 0.01,-0.011 -1.46,0 0,26.671 0.01,-0.015 -21.91,-0.002 0.02,0.011 -3.93,-13.02 0,-0.014 -0.01,0 -3.72,-10e-4 0.02,0.021 0,-3.121 -0.02,0 -2.9,-10e-4 0.02,0.022 0,-2.502 -3.94,0 0.02,0.022 0,-2.709 -0.02,0 -1.86,-10e-4 0.02,0.023 0,-20.279 -0.02,0 -13.02,-0.003 0.02,0.028 0.01,-41.954 0,-0.034 -2.72,0 0.03,0.034 0,-3.755 -0.03,0 -8.89,-10e-4 -0.03,0 0,0.036 -0.01,38.234 0.04,-0.042 -4.17,0 0,6.348 0.07,-0.075 1.03,-1.033 -0.06,-0.062 -4.24,4.236 0.04,-0.013 -15.4,-0.002 0.03,0.013 -3.98,-3.979 -0.03,0.082 1.55,0 0,-2.214 -1.55,0 0.05,0.048 0,-2.529 -2.53,0 0,8.523 0.05,-0.051 -1.91,0 0,1.91 0.05,-0.051 -4.6,0 0,3.152 0.06,-0.053 -4.6,0 0,2.326 0.05,-0.053 -9.3,-0.002 0.05,0.055 0,-2.329 -6.25,0 0.05,0.056 0.01,-10.334 0,-0.138 -0.1,0.098 -1.66,1.652 -0.01,0.018 0,1.47 0.06,-0.058 -1.72,0 0,2.125 0.06,-0.058 -1.71,0 0,3.571 0.06,-0.059 -6.41,-10e-4 -0.06,0 0,3.573 0.06,-0.06 -1.71,0 0,5.02 0.06,-0.061 -22.74,-0.004 -0.06,0 0,5.379 0.06,-0.066 -2.13,0 0,21.413 0.07,-0.069 -3.58,0 0,0.069 -0.01,1.24 0.07,-0.07 -6.61,-0.001 -0.07,0 0,3.584 0.07,-0.071 -9.3,-10e-4 0.07,0.072 0,-3.999 -0.07,0 -8.06,-10e-4 0.07,0.074 0.01,-7.027 0,-0.076 -2.15,0 0.08,0.076 0,-7.93 -0.08,0 -3.51,-10e-4 0.08,0.078 0,-19.508 -4.63,0 0.08,0.081 0,-2.355 -0.08,0 -5.99,-0.001 0.08,0.082 0,-4.939 -0.08,0 -8.89,-0.002 0.09,0.084 0,-2.048 -2.15,0 0.08,0.085 0,-2.979 -5.87,0 0.09,0.086 0,-4.014 -1.74,0 0.08,0.087 0,-6.908 -0.08,0 -6,-10e-4 -0.09,0 0,8.149 0.09,-0.09 -1.65,-10e-4 -0.09,0 0,5.762 2.78,0 -0.09,-0.091 -0.01,14.88 0.1,-0.094 -7.12,0 0,0.094 -0.01,10.747 0.1,-0.096 -8.89,-0.002 -0.09,0 0,0.098 -0.01,9.714 0.1,-0.099 -11.78,-0.002 -0.1,0 0,3.82 0.1,-0.101 -21.9,-0.003 0.1,0.104 0,-3.411 -0.1,0 -8.48,-10e-4 0.11,0.106 0,-32.145 -2.7,0 0,0.111 -0.01,45.467 0.12,-0.117 -11.16,-0.002 -0.25,-10e-4 0.16,0.197 10.95,13.434 0.12,-0.196 c -3.53,-0.778 -7.08,-1.479 -10.64,-2.115 -3.57,-0.631 -7.14,-1.197 -10.74,-1.603 -1.8,-0.2 -3.6,-0.361 -5.42,-0.425 -1.81,-0.08 -3.63,0.053 -5.43,0.153 -3.61,0.228 -7.22,0.517 -10.81,1.089 l 0,10e-4 -0.01,10e-4 -10.74,2.892 0.13,0.207 9.31,-11.779 0.15,-0.194 -0.25,-0.02 -12.6,-1.035 0.12,0.133 0.01,-51.46 0,-0.142 -0.14,0 -14.059,-0.002 -0.145,0 0,0.144 -0.017,118.421 0.324,-0.008 -1.444,-27.694 -0.007,-0.157 -0.158,0 -11.16,-10e-4 -0.167,0 0,0.167 -0.003,13.433 0.17,-0.169 -3.386,0 -0.05,0.061 -17.571,20.87 0.134,-0.062 -4.289,0 -0.018,0.155 -2.897,25.626 0.355,0.013 -1.03,-25.627 -0.008,-0.175 -6.788,0 0.166,0.102 -9.918,-20.461 0.019,0.081 0.009,-63.241 0,-0.196 -0.196,0 -48.153,-0.007 -0.203,0 0,0.203 -0.004,25.834 0.207,-0.207 -14.881,-0.002 -0.209,0 0,4.342 0.209,-0.209 -18.806,-0.003 0.212,0.212 0,-3.726 -0.212,0 -7.648,-0.002 0.214,0.214 0,-1.867 -0.214,0 -6.199,-10e-4 0.215,0.215 0,-2.075 -0.215,0 -43.608,-0.007 -0.221,0 0,0.222 -10e-4,2.894 0.147,-0.21 -13.432,4.752 -0.151,0.052 0,0.159 -0.001,7.026 0.445,-0.047 -1.083,-5.012 -0.044,-0.202 -0.205,0.026 -1.24,0.154 -0.181,0.023 -0.017,0.18 -0.672,7.079 0.452,0.012 -0.308,-7.182 -0.01,-0.219 -2.544,0 -0.02,0.206 -0.621,6.252 0.456,-0.013 -0.93,-5.994 -0.024,-0.155 -0.154,-0.034 -0.93,-0.207 -0.24,-0.053 -0.037,0.243 -0.983,6.407 0.46,0.028 -0.257,-8.68 -0.004,-0.144 -0.13,-0.06 -12.244,-5.737 0.135,0.213 10e-4,-3.41 0,-0.236 -5.196,0 0.237,0.236 0.005,-44.021 0,-0.243 -0.242,0 -13.743,-0.002 0.243,0.245 0.001,-7.027 0,-0.245 -0.244,0 -5.994,-10e-4 -0.246,0 0,0.246 -10e-4,4.547 0.247,-0.247 -12.193,-0.002 0.249,0.249 0,-2.523 -3.143,0 0.249,0.249 10e-4,-3.306 0,-0.25 -0.25,0 -3.307,-10e-4 0.25,0.251 0.004,-22.734 0,-0.254 -3.814,0 0,0.254 -0.009,52.907 0.263,-0.262 -7.648,-10e-4 -0.262,0 0,0.263 -0.002,16.741 0.264,-0.265 -2.686,-10e-4 -0.266,0 0,0.266 -0.005,32.034 0.541,-0.022 -1.444,-17.98 -0.02,-0.252 -1.766,0 0,0.274 -10e-4,1.756 0.274,-0.274 -1.876,0 0,2.702 0.275,-0.274 -1.928,0 0,0.274 -10e-4,2.713 0.275,-0.275 -23.199,-0.004 -0.278,0 0,0.279 -0.008,59.099 0.286,-0.288 -10.195,-10e-4 -0.289,0 0,4.285 0.289,-0.29 -18.463,-0.002 0.293,0.292 0,-3.462 -0.293,0 -9.507,-10e-4 0.295,0.294 0.014,-95.344 0,-0.256 -0.252,-0.046 -2.203,-0.414 0.251,0.303 0.006,-44.228 0,-0.315 -5.211,0 0,0.315 -10e-4,4.96 0.316,-0.316 -1.557,0 0,0.316 -0.006,39.888 0.323,-0.323 -42.471,-0.006 0.329,0.329 0.006,-34.204 0,-0.334 -3.355,0 0,1.781 0.334,-0.335 -7.234,-10e-4 -0.336,0 0,1.782 0.336,-0.336 -3.617,0 0.336,0.336 0.001,-1.653 0,-0.337 -3.402,0 0.336,0.337 10e-4,-1.895 0,-0.337 -2.294,0 0,0.337 -0.005,37.407 0.342,-0.343 -4.235,0 0,1.583 0.343,-0.344 -5.579,0 0,3.376 0.344,-0.345 -5.924,-10e-4 -0.346,0 0,0.346 -10e-4,2.618 0.347,-0.346 -1.102,0 0.244,0.101 -1.928,-1.929 -0.102,-0.102 -4.073,0 0,0.346 -10e-4,3.755 0.348,-0.348 -6.751,-0.001 0.348,0.349 10e-4,-4.03 0,-0.349 -0.349,0 -13.503,-0.002 0.352,0.351 0,-2.902 -0.103,-0.103 -1.584,-1.584 -0.104,-0.103 -0.146,0 -3.375,-10e-4 0.353,0.353 0.002,-19.22 0,-0.148 -0.104,-0.104 -5.023,-5.025 -0.104,-0.104 -0.149,0 -13.576,-0.003 0.359,0.359 10e-4,-9.579 0,-0.361 -3.475,0 0,0.361 -0.007,39.818 0.367,-0.367 -4.409,-0.001 -0.366,0 -0.001,0.368 -10e-4,7.715 0.368,-0.368 -32.379,-0.005 -0.373,0 0,0.373 -0.003,26.316 0.376,-0.376 -4.408,-10e-4 -0.377,0 0,0.377 -0.002,9.231 0.379,-0.379 -7.027,-0.001 -0.38,0 0,6.443 0.38,-0.381 -3.826,0 0,0.381 -0.003,19.841 0.113,-0.272 -3.445,3.443 -0.113,0.113 0,0.159 -10e-4,9.232 0.114,-0.273 -0.897,0.896 0.659,0.273 0.002,-9.989 0,-0.161 -0.113,-0.114 -3.961,-3.962 0.113,0.275 0.003,-19.461 0,-0.392 -3.112,0 0.392,0.392 0.001,-5.374 10e-4,-0.392 -0.394,0 -7.716,-10e-4 0.394,0.393 0.001,-9.369 10e-4,-0.395 -4.253,0 0.395,0.395 0.002,-16.808 0,-0.399 -2.312,0 0,0.399 -10e-4,6.337 0.4,-0.399 -7.716,-10e-4 0.4,0.4 10e-4,-3.583 0,-0.401 -7.842,0 0.403,0.401 0.001,-3.306 0,-0.403 -0.404,0 -10.195,-0.002 0.405,0.405 0.009,-62.415 0,-0.413 -0.414,0 -4.89,10e-4 -0.413,0 0,0.412 10e-4,6.752 0.821,-0.046 -1.241,-11.159 -0.041,-0.366 -0.367,0 -5.03,0.001 0.41,0.41 -0.001,-2.963 0,-0.409 -0.409,0 -4.408,0.001 -0.409,0 0,0.408 0.001,2.48 0.408,-0.408 -17.636,0.003 0.405,0.405 -10e-4,-1.377 0,-0.405 -0.404,0 -7.233,10e-4 -0.404,0 0,3.16 0.404,-0.403 -2.126,0 0,0.403 0.001,6.13 0.402,-0.401 -9.059,10e-4 -0.401,0 10e-4,0.4 0.009,64.275 0.391,-0.392 -6.716,0.002 -0.391,0 0,3.077 0.391,-0.39 -5.271,10e-4 -0.389,0 0,0.389 0.001,6.2 0.388,-0.389 -2.17,10e-4 -0.388,0 10e-4,0.388 0,1.653 0.387,-0.387 -4.96,0 -0.387,10e-4 0,0.386 0.004,28.624 0.383,-0.383 -5.167,10e-4 0.382,0.382 -0.004,-28.417 0,-0.379 -0.378,0 -2.687,10e-4 0.378,0.378 0,-1.824 -0.378,0 -4.546,0.001 0.376,0.376 -0.001,-6.303 0,-0.376 -0.375,0 -4.857,10e-4 0.375,0.375 0,-2.855 -0.375,0 -10.333,10e-4 0.372,0.373 0,-2.646 -0.372,0 -6.717,0.002 -0.371,0 0,1.611 0.371,-0.371 -3.824,10e-4 -0.37,0 0,1.816 0.37,-0.37 -9.609,0.002 0.368,0.368 -10e-4,-3.926 0,-0.368 -0.367,0 -5.891,10e-4 0.368,0.367 -0.004,-25.73 0,-0.364 -0.364,0 -11.056,0.002 -0.364,0 0,0.362 0.002,9.403 0.362,-0.361 -10.954,0.002 0.359,0.359 -0.001,-8.784 0,-0.357 -4.85,0 0.001,0.357 0.007,45.675 0.35,-0.351 -11.366,0.002 -0.349,0 0,6.755 0.349,-0.347 -25.627,0.004 0.343,0.343 -0.001,-5.786 0,-0.343 -0.342,0 -10.954,10e-4 0.341,0.342 -0.005,-38.854 0,-0.336 -0.336,0 -7.44,10e-4 0.335,0.335 -0.001,-4.134 0,-0.333 -3.021,0 0.334,0.333 -0.008,-56.42 0,-0.326 -0.326,0 -3.72,10e-4 -0.325,0 0,0.325 0.01,65.307 0.315,-0.315 -40.921,0.006 -0.309,0 0,0.309 0.017,107.468 0.292,-0.292 -5.252,0 0,0.292 0.001,6.614 0.291,-0.291 -40.507,0.006 0.285,0.285 -0.022,-149.069 0,-0.263 -0.263,0 -2.1353,0.001 -0.2629,0 0,0.262 4e-4,4.744 0.2625,-0.262 -30.9321,0.005 0.2578,0.257 -7e-4,-3.03 0,-0.258 -0.2571,0 -7.2332,10e-4 0.2559,0.257 0,-2.805 -0.2559,0 -5.6488,10e-4 0.2547,0.254 -4e-4,-5.097 0,-0.255 -0.2543,0 -3.8578,10e-4 0.2531,0.254 0,-2.113 -0.2531,0 -5.2356,0.001 0.2524,0.251 -0.0063,-42.987 0,-0.246 -0.2461,0 -5.9254,0.001 0.2457,0.245 -0.0031,-20.253 0,-0.243 -0.2426,0 -8.473,0.002 -0.2406,0 0,0.241 8e-4,7.027 0.2398,-0.241 -4.5469,0.001 -0.2386,0 0,0.24 0.0011,14.466 0.2375,-0.237 -6.2004,10e-4 -0.2355,0 0,0.236 0.0019,15.5 0.2336,-0.233 -4.9859,0 0,0.233 0.0019,17.981 0.2313,-0.231 -15.13477,0.002 0.22852,0.229 -0.01407,-96.516 -0.21445,0.215 1366.59297,-0.203 -0.01,-0.012 0.01,54.699 0,-0.003 -8.59,10e-4 0,9.647 -1.17,-0.069 -2.27,0 z m 3.44,0.069 0,0 0.01,-9.645 -0.01,10e-4 8.59,0.002 0.01,0 0,-0.003 0.01,-54.699 0,-0.01 -0.02,0 -1366.59297,-0.203 -0.214061,0 0,0.213 -0.014453,96.516 0,0.228 0.228514,0 15.13477,0.002 0.2297,0 8e-4,-0.23 0.0023,-17.981 -0.2328,0.234 4.9871,0 0,-0.234 0.0016,-15.5 -0.236,0.237 6.4383,0 0,-0.237 8e-4,-14.466 -0.2387,0.238 4.5469,10e-4 0.2398,0 0,-0.239 8e-4,-7.027 -0.2406,0.24 8.473,0.002 -0.2418,-0.242 -0.0031,20.253 0,0.245 0.2449,0 5.9254,0.002 -0.2464,-0.247 -0.0067,42.987 0,0.253 5.4887,0 -0.2535,-0.253 0,2.114 0.2535,0 3.8578,10e-4 -0.2543,-0.254 -0.0012,5.097 0,0.255 5.9043,0 -0.2558,-0.255 0,2.806 0.2558,0 7.2332,10e-4 -0.2566,-0.257 -4e-4,3.03 0,0.257 0.257,0 30.9321,0.005 0.2621,0 0,-0.262 7e-4,-4.744 -0.2628,0.263 2.1353,10e-4 -0.263,-0.264 -0.022,149.069 0,0.286 0.285,0 40.507,0.006 0.292,0 0,-0.292 0.001,-6.614 -0.293,0.293 4.96,10e-4 0.293,0 0,-0.294 0.017,-107.468 -0.31,0.309 40.921,0.006 0.315,10e-4 0,-0.316 0.01,-65.307 -0.325,0.324 3.72,10e-4 -0.325,-0.325 -0.008,56.42 0,0.334 3.02,0 -0.334,-0.334 -0.001,4.134 0,0.335 0.335,0 7.44,0.001 -0.336,-0.336 -0.005,38.854 0,0.341 0.341,0 10.954,0.002 -0.344,-0.343 -10e-4,5.786 0,0.345 0.345,0 25.627,0.004 0.347,0 0,-0.349 0.001,-6.406 -0.348,0.349 11.366,10e-4 0.351,0 0,-0.35 0.006,-45.675 -0.357,0.358 4.134,0.001 -0.358,-0.359 -0.001,8.784 0,0.359 0.359,0 10.954,0.002 0.361,0 0,-0.361 0.001,-9.403 -0.362,0.362 11.056,0.002 -0.364,-0.364 -0.003,25.73 -0.001,0.368 0.368,0 5.891,10e-4 -0.369,-0.369 -10e-4,3.926 0,0.37 0.37,0 9.609,0.002 0.371,0 0,-1.818 -0.371,0.371 3.824,10e-4 0.371,0 0,-1.612 -0.371,0.372 6.717,0.001 -0.372,-0.373 -0.001,2.273 0,0.373 0.373,0 10.333,0.002 -0.375,-0.375 0,2.855 0.375,0 4.857,10e-4 -0.376,-0.375 0,6.679 0.376,0 4.546,10e-4 -0.376,-0.377 0,1.824 0.376,0 2.687,10e-4 -0.378,-0.378 -0.004,28.417 0,0.382 0.382,0 5.167,10e-4 0.383,0 0,-0.383 0.004,-28.624 -0.387,0.387 4.96,10e-4 0.388,0 0,-2.041 -0.388,0.388 2.558,0 0,-0.388 0.001,-6.2 -0.389,0.388 5.271,10e-4 0.389,0 0,-0.389 0.001,-2.687 -0.39,0.39 6.716,10e-4 0.392,0 0,-0.391 0.008,-64.275 -0.4,0.401 9.059,10e-4 0.402,10e-4 0,-0.403 0.001,-6.13 -0.403,0.403 2.126,0 0,-3.159 -0.403,0.403 7.233,10e-4 -0.404,-0.404 -0.001,1.377 0,0.405 0.405,0 17.636,0.003 0.408,0 0,-2.888 -0.408,0.408 4.408,0 -0.408,-0.408 -10e-4,2.963 0,0.409 0.409,0 5.03,10e-4 -0.408,-0.365 1.238,11.16 0.822,-0.045 0,-6.752 -0.412,0.413 4.89,10e-4 -0.413,-0.414 0.009,62.415 0,0.404 0.404,0 10.195,-10e-4 -0.402,-0.403 10e-4,3.306 0,0.403 0.401,0 7.441,-0.001 -0.401,-0.402 0.001,3.583 0,0.401 0.4,0 7.716,-10e-4 0.399,-10e-4 0,-0.399 -10e-4,-6.337 -0.398,0.397 1.516,0 -0.398,-0.397 0.002,16.808 0,0.396 0.396,0 3.857,-10e-4 -0.395,-0.395 10e-4,9.369 0,0.394 8.11,0 -0.392,-0.394 0,5.766 0.392,0 2.72,-10e-4 -0.391,-0.391 0.004,19.461 0,0.161 0.113,0.114 3.962,3.961 -0.113,-0.274 10e-4,9.989 0,0.933 0.659,-0.66 0.896,-0.896 0.113,-0.113 0,-0.16 -10e-4,-9.232 -0.112,0.272 3.443,-3.444 0.112,-0.113 0,-0.158 -0.003,-19.841 -0.381,0.381 3.825,0 0,-6.444 -0.38,0.38 7.027,-10e-4 0.379,0 0,-0.379 -0.002,-9.231 -0.377,0.378 4.408,-10e-4 0.377,0 0,-0.377 -0.004,-26.316 -0.373,0.373 32.379,-0.005 0.368,0 0,-0.368 -10e-4,-7.715 -0.367,0.366 4.775,0 0,-0.366 -0.006,-39.818 -0.36,0.36 2.755,0 -0.36,-0.36 0.002,9.579 0,0.359 0.358,0 13.576,-0.003 -0.251,-0.104 5.025,5.024 -0.104,-0.251 0.002,19.22 0,0.353 0.353,0 3.375,-0.001 -0.248,-0.103 1.585,1.583 -0.104,-0.248 10e-4,2.756 0,0.352 0.351,0 13.503,-0.002 -0.35,-0.35 10e-4,4.03 0,0.349 0.349,0 6.751,-0.001 0.348,0 0,-0.348 -10e-4,-3.755 -0.347,0.347 3.583,0 -0.245,-0.101 1.929,1.928 0.101,0.103 1.592,0 0,-0.347 -10e-4,-2.618 -0.345,0.345 5.924,-0.001 0.345,0 0,-3.376 -0.345,0.345 5.235,0 0.345,-10e-4 0,-1.584 -0.345,0.344 3.892,-10e-4 0.344,0 0,-0.343 -0.006,-37.407 -0.338,0.337 1.62,0 -0.337,-0.337 0,2.232 0.337,0 3.065,-10e-4 -0.336,-0.336 10e-4,1.653 0,0.337 0.335,0 3.617,-10e-4 0.336,0 0,-1.782 -0.336,0.335 7.234,-0.001 0.334,0 0,-1.781 -0.334,0.334 2.686,0 -0.334,-0.334 0.005,34.204 0,0.328 0.329,0 42.471,-0.006 0.323,0 0,-0.322 -0.006,-39.888 -0.317,0.317 1.557,0 0,-0.317 -10e-4,-4.96 -0.316,0.316 4.582,-0.001 -0.315,-0.315 0.006,44.228 0,0.256 0.251,0.047 2.205,0.413 -0.252,-0.303 0.014,95.344 0,0.294 0.294,0 9.507,-10e-4 -0.292,-0.293 0,3.462 0.292,0 18.463,-0.003 0.29,0 0,-0.29 -10e-4,-3.996 -0.289,0.289 10.195,-10e-4 0.288,0 0,-0.288 -0.009,-59.099 -0.279,0.279 23.199,-0.004 0.276,0 0,-0.275 -10e-4,-2.713 -0.275,0.275 1.928,0 0,-2.703 -0.274,0.275 1.601,-10e-4 0.275,0 0,-0.274 -10e-4,-1.756 -0.274,0.273 1.241,0 -0.273,-0.251 1.449,17.98 0.542,-0.022 -0.006,-32.034 -0.266,0.266 2.686,-10e-4 0.268,0 -10e-4,-0.265 -0.003,-16.741 -0.264,0.264 7.648,-10e-4 0.263,0 0,-0.263 -0.009,-52.907 -0.254,0.255 3.306,-0.001 -0.252,-0.254 0.002,22.734 0,0.251 0.25,0 3.307,-0.001 -0.25,-0.25 10e-4,3.306 0,0.25 3.143,0 -0.249,-0.25 0,2.523 0.249,0 12.193,-0.002 0.247,0 0,-0.247 -10e-4,-4.547 -0.246,0.246 5.994,-10e-4 -0.246,-0.245 10e-4,7.027 0,0.245 0.245,0 13.743,-0.002 -0.242,-0.243 0.007,44.021 0,0.236 0.235,-10e-4 4.96,0 -0.236,-0.235 10e-4,3.41 10e-4,0.149 0.136,0.064 12.245,5.733 -0.134,-0.204 0.26,8.68 0.46,0.028 0.98,-6.407 -0.278,0.19 0.931,0.207 -0.178,-0.189 0.93,5.992 0.277,1.784 0.179,-1.796 0.619,-6.252 -0.227,0.206 2.117,0 -0.227,-0.218 0.311,7.181 0.452,0.012 0.672,-7.079 -0.197,0.203 1.239,-0.155 -0.249,-0.176 1.087,5.012 0.445,2.055 0,-2.104 -10e-4,-7.026 -0.15,0.211 13.433,-4.755 0.148,-0.052 0,-0.157 -0.001,-2.894 -0.221,0.222 43.608,-0.007 -0.216,-0.215 10e-4,1.86 0,0.215 0.215,0 6.199,-0.001 -0.214,-0.214 0,1.867 0.214,0 7.648,-10e-4 -0.213,-0.213 10e-4,3.514 0,0.212 0.212,0 18.806,-0.003 0.209,0 0,-0.209 -10e-4,-4.133 -0.208,0.208 14.881,-0.002 0.206,0 0,-0.206 -0.004,-25.834 -0.202,0.202 48.153,-0.007 -0.194,-0.195 0.008,63.241 0,0.043 0.018,0.038 9.924,20.459 0.05,0.103 0.114,0 6.614,-10e-4 -0.181,-0.174 1.036,25.626 0.356,0.013 2.888,-25.627 -0.173,0.155 4.135,-0.001 0.08,0 0.051,-0.062 17.565,-20.876 -0.129,0.06 3.474,0 0,-0.17 -10e-4,-13.433 -0.167,0.167 11.16,-0.002 -0.165,-0.156 1.45,27.693 0.324,-0.009 -0.018,-118.421 -0.144,0.144 14.059,-0.002 -0.15,-0.142 0.01,51.46 0,0.125 0.12,0.009 12.61,1.032 -0.09,-0.214 -9.3,11.781 -0.24,0.309 0.38,-0.102 10.74,-2.895 -0.01,0.002 c 3.56,-0.569 7.17,-0.86 10.78,-1.089 1.8,-0.099 3.6,-0.233 5.4,-0.153 1.81,0.063 3.61,0.222 5.4,0.422 3.59,0.403 7.16,0.968 10.72,1.597 3.56,0.634 7.11,1.334 10.64,2.109 l 0.34,0.075 -0.22,-0.271 -10.95,-13.432 -0.1,0.195 11.16,-0.001 0.12,0 0,-0.119 -0.01,-45.467 -0.11,0.111 2.48,0 -0.11,-0.111 0.01,32.034 0,0.106 0.1,0 8.48,-10e-4 -0.11,-0.105 0,3.411 0.11,0 21.9,-0.003 0.1,0 0,-3.821 -0.1,0.101 11.78,-0.003 0.1,0 0,-9.812 -0.1,0.098 8.89,-0.002 0.1,0 0,-0.096 -0.01,-10.747 -0.09,0.094 7.12,0 0,-15.065 -2.78,0 0.09,0.091 0,-5.58 -0.09,0.091 1.65,-10e-4 0.09,0 0,-8.15 -0.09,0.089 6,-10e-4 -0.09,-0.088 0,6.906 1.74,0 -0.09,-0.086 0,4.012 5.88,0 -0.09,-0.085 0,2.977 2.15,0 -0.08,-0.084 0,2.048 0.08,0 8.89,-0.002 -0.08,-0.083 0,4.939 0.08,0 5.99,-10e-4 -0.08,-0.081 0,2.354 4.63,0 -0.08,-0.08 0,19.504 0.08,0 3.51,-10e-4 -0.07,-0.076 0,7.929 0.07,0 2.07,-10e-4 -0.08,-0.075 0.01,7.027 0,0.074 0.07,0 8.06,-0.001 -0.07,-0.073 0,3.999 0.07,0 9.3,-10e-4 0.07,0 0,-3.585 -0.07,0.071 6.61,-10e-4 0.07,0 0,-1.31 -0.07,0.069 3.59,0 0,-0.069 -0.01,-21.347 -0.06,0.066 2.06,-10e-4 0.07,0 0,-5.379 -0.07,0.065 22.74,-0.003 0.06,0 0,-5.022 -0.06,0.061 1.71,0 0,-3.574 -0.06,0.06 6.41,-10e-4 0.06,0 0,-3.572 -0.06,0.058 1.71,0 0,-2.125 -0.06,0.058 1.71,0 0,-1.505 -0.01,0.041 1.65,-1.653 -0.1,-0.041 0,10.389 0.06,0 6.2,-10e-4 -0.06,-0.054 0,2.328 0.06,0 9.3,-0.002 0.05,0 0,-2.326 -0.05,0.052 4.55,-10e-4 0.05,0 0,-3.152 -0.05,0.052 4.54,-10e-4 0.05,0 0,-1.91 -0.05,0.05 1.91,0 0,-8.524 -0.05,0.049 2.43,0 -0.05,-0.049 0,2.528 1.55,0 -0.05,-0.048 0,2.118 0.05,-0.047 -1.62,0 0.09,0.081 3.98,3.978 0.01,0.014 0.02,0 15.4,-0.003 0.01,0 0.02,-0.013 4.23,-4.237 -0.06,-0.062 -1.03,1.033 0.07,0.031 0,-6.2 -0.04,0.043 4.13,-10e-4 0.04,0 0,-38.276 -0.04,0.037 8.89,-0.002 -0.04,-0.035 0,3.754 2.73,0 -0.04,-0.034 0.01,41.954 0,0.029 0.03,0 13.02,-0.003 -0.03,-0.026 0,20.277 1.89,0 -0.03,-0.023 0,2.709 0.03,0 3.92,-10e-4 -0.02,-0.021 0,2.501 2.92,0 -0.02,-0.021 0,3.12 3.74,0 -0.02,-0.014 3.93,13.019 0,0.013 0.01,0 21.91,-0.004 0.01,0 0,-26.674 -0.01,0.01 1.46,0 0,-0.01 -0.01,-53.735 0,0.003 5.37,-0.001 0,-0.002 0,9.508 2.27,-0.001 1.17,0.069"
       id="path26"
       style="fill:#3b393d;fill-opacity:1;fill-rule:nonzero;stroke:none"
       inkscape:connector-curvature="0" /><path
       d="m 1350.4,776.048 0,48.085 -10.34,0 0,-48.085 -20.53,0 0,27.694 -8.54,0 0,-42.299 -48.77,0 0,28.934 -8.27,0 0,5.374 -41.2,0 0,-4.134 -7.71,0 0,-22.182 -2.34,0 0,23.354 -12.82,0 0,7.509 -24.66,0 0,-3.583 -6.34,0 0,10.334 -8.26,0 0,-14.26 -49.33,0 0,23.216 -24.39,0 0,-27.006 -11.71,0 0,16.534 -20.94,0 0,6.752 -17.77,0 0,-5.373 -46.161,0 0,19.701 c 0,0 -11.987,7.44 -22.594,6.476 0,0 -19.98,-2.342 -28.384,-9.507 l 0,-42.297 -2.204,0 0,13.64 -10.197,0 0,4.96 -17.911,0 0,6.75 -8.956,3.031 0,24.801 -22.182,0 0,-1.378 -5.373,0 0,-3.858 -3.72,0 0,-11.986 -15.019,0 0,-17.086 -8.129,0 0,-11.16 -8.956,0 0,8.957 -1.102,0 0,19.427 -11.711,0 -3.1,3.099 0,9.99 -40.301,0 0,-9.645 -2.134,-2.136 0,-51.874 -40.233,0 0,-8.542 -29.76,0 -2.583,2.583 -7.957,0 0,4.857 -11.16,0 0,-6.614 -5.787,0 0,-6.406 -15.294,0 0,47.947 -7.44,0 0,5.787 -22.113,0 0,7.853 -28.728,0 0,-2.48 -8.887,0 0,-5.786 -20.873,0 0,-4.134 -3.72,0 0,-8.301 -5.581,0 0,-3.893 -4.339,0 0,-38.854 -14.881,0 0,30.175 -8.68,0 c 0,0 -0.413,16.326 0,16.326 0.414,0 -8.06,0 -8.06,0 l -6.097,6.097 -7.13,0 0,5.27 -16.327,0 0,-5.166 -17.98,0 0,-31.414 -14.673,0 0,-16.534 -35.134,0 0,20.46 -5.581,0 0,12.194 -5.58,0 0,4.408 -3.307,0 0,5.719 -2.273,0 0,5.787 -11.987,0 0,6.199 -12.193,0 0,2.618 -17.636,0 0,-1.377 -17.292,0 -3.927,-3.927 -11.366,0 0,-4.961 -4.547,0 0,-2.686 -6.82,0 0,-28.934 -15.087,0 0,-7.853 -19.84,0 0,24.387 -10.127,0 -2.79,2.79 -13.95,0 0,3.41 -4.65,4.65 -21.598,0 0,-5.822 -16.12,0 0,-6.475 -12.193,0 0,-36.994 -30.243,0 0,4.271 -31.413,0 0,77.708 -9.37,0 0,-3.307 -4.96,-4.96 -7.44,0 0,-4.408 -4.822,-4.823 -6.476,0 0,16.947 -27.0051,0 0,-29.484 -5.7867,0 0,-3.859 -16.809,0 0,-49.875 -25.3519,0 -6.3371,6.337 -9.6449,0 0,26.454 -7.9915,0 0,6.889 -11.298,0 0,-65.791 1366.6832,0 0,54.699 -17.4,0.069"
       id="path28"
       style="fill:#36392c;fill-opacity:0.23195879;fill-rule:nonzero;stroke:none"
       inkscape:connector-curvature="0" /><path
       d="m 1350.4,776.048 0,48.085 -10.34,0 0,-48.085 -20.53,0 0,27.694 -8.54,0 0,-42.299 -48.77,0 0,28.934 -8.27,0 0,5.374 -41.2,0 0,-4.134 -7.71,0 0,-22.182 -2.34,0 0,23.354 -12.82,0 0,7.509 -24.66,0 0,-3.583 -6.34,0 0,10.334 -8.26,0 0,-14.26 -49.33,0 0,23.216 -24.39,0 0,-27.006 -11.71,0 0,16.534 -20.94,0 0,6.752 -17.77,0 0,-5.373 -46.161,0 0,19.701 c 0,0 -11.987,7.44 -22.594,6.476 0,0 -19.98,-2.342 -28.384,-9.507 l 0,-42.297 -2.204,0 0,13.64 -10.197,0 0,4.96 -17.911,0 0,6.75 -8.956,3.031 0,24.801 -22.182,0 0,-1.378 -5.373,0 0,-3.858 -3.72,0 0,-11.986 -15.019,0 0,-17.086 -8.129,0 0,-11.16 -8.956,0 0,8.957 -1.102,0 0,19.427 -11.711,0 -3.1,3.099 0,9.99 -40.301,0 0,-9.645 -2.134,-2.136 0,-51.874 -40.233,0 0,-8.542 -29.76,0 -2.583,2.583 -7.957,0 0,4.857 -11.16,0 0,-6.614 -5.787,0 0,-6.406 -15.294,0 0,47.947 -7.44,0 0,5.787 -22.113,0 0,7.853 -28.728,0 0,-2.48 -8.887,0 0,-5.786 -20.873,0 0,-4.134 -3.72,0 0,-8.301 -5.581,0 0,-3.893 -4.339,0 0,-38.854 -14.881,0 0,30.175 -8.68,0 c 0,0 -0.413,16.326 0,16.326 0.414,0 -8.06,0 -8.06,0 l -6.097,6.097 -7.13,0 0,5.27 -16.327,0 0,-5.166 -17.98,0 0,-31.414 -14.673,0 0,-16.534 -35.134,0 0,20.46 -5.581,0 0,12.194 -5.58,0 0,4.408 -3.307,0 0,5.719 -2.273,0 0,5.787 -11.987,0 0,6.199 -12.193,0 0,2.618 -17.636,0 0,-1.377 -17.292,0 -3.927,-3.927 -11.366,0 0,-4.961 -4.547,0 0,-2.686 -6.82,0 0,-28.934 -15.087,0 0,-7.853 -19.84,0 0,24.387 -10.127,0 -2.79,2.79 -13.95,0 0,3.41 -4.65,4.65 -21.598,0 0,-5.822 -16.12,0 0,-6.475 -12.193,0 0,-36.994 -30.243,0 0,4.271 -31.413,0 0,77.708 -9.37,0 0,-3.307 -4.96,-4.96 -7.44,0 0,-4.408 -4.822,-4.823 -6.476,0 0,16.947 -27.0051,0 0,-29.484 -5.7867,0 0,-3.859 -16.809,0 0,-49.875 -25.3519,0 -6.3371,6.337 -9.6449,0 0,26.454 -7.9915,0 0,6.889 -11.298,0 0,-65.791 1366.6832,0 0,54.699 -17.4,0.069 z"
       id="path30"
       style="fill:none;stroke:#242121;stroke-width:1;stroke-linecap:butt;stroke-linejoin:miter;stroke-miterlimit:10;stroke-opacity:1;stroke-dasharray:none"
       inkscape:connector-curvature="0" /></g></svg>